<?xml version="1.0" encoding="UTF-8"?>
<svg id="_图层_1" xmlns="http://www.w3.org/2000/svg" version="1.1" viewBox="0 0 1600 1600">
  <!-- Generator: Adobe Illustrator 29.0.1, SVG Export Plug-In . SVG Version: 2.1.0 Build 192)  -->
  <path d="M62.3,225.6v-61.3c0-40.6,32.9-73.5,73.5-73.5h1229.6c40.6,0,73.5,32.9,73.5,73.5v61.4h-73.8v41.4h115.8l65.6,5.2v850.5l-65.9,1.9h-41.2v276.6H173.8v-97l-112.3-112.3.8-966.4h0Z" style="fill: #333;"/>
  <path d="M62.3,164.2c0-40.6,32.9-73.5,73.5-73.5h1229.6c40.6,0,73.5,32.9,73.5,73.5v61.3h-73.8v41.4H62.3v-102.8h0Z" style="fill: #424242;"/>
  <polygon points="61.5 1192 173.8 1304.2 173.8 1401.2 1439.5 1401.2 1439.5 1124.6 61.5 1124.6 61.5 1192" style="fill: #414141;"/>
  <path d="M1397,1520.3H216.2c-23.5,0-42.5-19.1-42.5-42.5v-76.6h1265.8v76.6c0,23.5-19.1,42.5-42.5,42.5h0Z" style="fill: #ededed; stroke: #000; stroke-miterlimit: 10; stroke-width: 2px;"/>
  <rect x="1274.2" y="1124.6" width="114.5" height="259.4" style="fill: #e1be72;"/>
  <rect x="1121" y="1124.6" width="114.5" height="271.5" style="fill: #e1be72;"/>
  <rect x="967.2" y="1124.6" width="114.5" height="271.5" style="fill: #e1be72;"/>
  <rect x="814.9" y="1124.6" width="114.5" height="271.5" style="fill: #e1be72;"/>
  <rect x="661" y="1124.6" width="114.5" height="271.5" style="fill: #e1be72;"/>
  <rect x="509.5" y="1124.8" width="114.5" height="271.5" style="fill: #e1be72;"/>
  <rect x="356.6" y="1124.8" width="114.5" height="271.5" style="fill: #e1be72;"/>
  <rect x="202.6" y="1124.8" width="114.5" height="271.5" style="fill: #e1be72;"/>
  <rect x="1214.7" y="267" width="37.9" height="857.6" style="fill: #1b1b1b;"/>
  <rect x="355.4" y="267" width="38" height="857.6" style="fill: #1b1b1b;"/>
  <rect x="61.9" y="267" width="66.9" height="857.6" style="fill: #212121;"/>
  <ellipse cx="235.2" cy="946.3" rx="73.6" ry="72.8" style="fill: #252525;"/>
  <circle cx="235.8" cy="945.9" r="61.2" style="fill: #656565;"/>
  <g>
    <path d="M226.3,1448.7c-2.4,0-4.6-.2-6.6-.7s-3.6-1.3-4.9-2.5-2.4-2.9-3.1-5-1.1-4.8-1.1-8.2.4-5.6,1.1-7.7,1.8-3.8,3.2-5.1c1.4-1.3,3-2.2,5-2.8,1.9-.6,4.2-.8,6.6-.8s1.6,0,2.4,0,1.6,0,2.3.2c.8,0,1.5.2,2.1.3.7,0,1.2.3,1.7.5v6.1c-1.2-.4-2.5-.8-3.9-1s-2.8-.3-4.1-.3-2.9.2-4,.5-2,.9-2.8,1.7c-.7.8-1.2,1.9-1.6,3.2s-.5,3-.5,5,.1,3.8.5,5.2c.3,1.4.8,2.4,1.5,3.2.7.8,1.6,1.3,2.6,1.6,1.1.3,2.4.5,4,.5h1.8c.6,0,1.1,0,1.6-.2v-6.9h-5.4v-5.8h11.9v17.4c-1.2.4-2.7.7-4.6,1-1.9.3-3.8.4-5.8.4h0v.2Z" style="fill: red;"/>
    <path d="M243.2,1416.5h10.6l10,22.7h.3v-22.7h6.8v31.8h-9.6l-11-24.2h-.3v24.2h-6.9v-31.8h.1Z" style="fill: red;"/>
    <path d="M288.9,1416.5c2.3,0,4.4.2,6.3.6s3.5,1.2,4.9,2.4,2.4,2.8,3.1,4.8c.7,2.1,1.1,4.8,1.1,8.1s-.4,5.6-1.1,7.7-1.8,3.7-3.1,4.9c-1.4,1.2-3,2.1-4.9,2.6s-4,.8-6.3.8h-10.9v-31.8h10.9ZM288.5,1442.3c1.5,0,2.7-.2,3.8-.5,1.1-.3,2-.8,2.7-1.6s1.2-1.8,1.6-3.1c.4-1.3.5-2.9.5-4.8s-.2-3.7-.5-5c-.4-1.3-.9-2.3-1.6-3.1s-1.6-1.3-2.7-1.5c-1.1-.3-2.3-.4-3.8-.4h-3.6v20h3.6Z" style="fill: red;"/>
  </g>
  <g>
    <path d="M1146.9,1448.7c-2.4,0-4.6-.2-6.6-.7s-3.6-1.3-4.9-2.5-2.4-2.9-3.1-5-1.1-4.8-1.1-8.2.4-5.6,1.1-7.7,1.8-3.8,3.2-5.1,3-2.2,5-2.8,4.2-.8,6.6-.8h2.4c.8,0,1.6,0,2.3.2.8,0,1.5.2,2.1.3.7,0,1.2.3,1.7.5v6.1c-1.2-.4-2.5-.8-3.9-1s-2.8-.3-4.1-.3-2.8.2-4,.5c-1.1.3-2,.9-2.8,1.7-.7.8-1.2,1.9-1.6,3.2s-.5,3-.5,5,.2,3.8.5,5.2.8,2.4,1.5,3.2c.7.8,1.6,1.3,2.6,1.6,1.1.3,2.4.5,4,.5h1.8c.6,0,1.1,0,1.6-.2v-6.9h-5.4v-5.8h11.9v17.4c-1.2.4-2.7.7-4.6,1-1.8.3-3.8.4-5.8.4h0v.2Z" style="fill: red;"/>
    <path d="M1163.9,1416.5h10.6l10,22.7h.3v-22.7h6.8v31.8h-9.6l-11-24.2h-.3v24.2h-6.9v-31.8h0Z" style="fill: red;"/>
    <path d="M1209.5,1416.5c2.3,0,4.4.2,6.3.6s3.5,1.2,4.9,2.4,2.4,2.8,3.1,4.8c.7,2.1,1.1,4.8,1.1,8.1s-.4,5.6-1.1,7.7-1.8,3.7-3.1,4.9-3,2.1-4.9,2.6-4,.8-6.3.8h-10.9v-31.8h10.9ZM1209.2,1442.3c1.5,0,2.7-.2,3.8-.5,1.1-.3,2-.8,2.7-1.6s1.2-1.8,1.6-3.1c.3-1.3.5-2.9.5-4.8s-.2-3.7-.6-5-.9-2.3-1.6-3.1c-.7-.8-1.6-1.3-2.7-1.5s-2.3-.4-3.8-.4h-3.6v20h3.7Z" style="fill: red;"/>
  </g>
  <g>
    <path d="M1301.3,1416.5h7.7l7.7,24.4h.3l7.9-24.4h7.2l-11.2,31.8h-8.7l-10.9-31.8Z" style="fill: red;"/>
    <path d="M1336.2,1416.5h10.6l10,22.7h.3v-22.7h6.8v31.8h-9.6l-11-24.2h-.3v24.2h-6.9v-31.8h0Z" style="fill: red;"/>
  </g>
  <g>
    <path d="M377.4,1417.7h7.7l7.6,24.4h.3l7.9-24.4h7.2l-11.2,31.8h-8.6l-10.9-31.8Z" style="fill: red;"/>
    <path d="M412.3,1417.7h7v31.8h-7v-31.8Z" style="fill: red;"/>
    <path d="M439.9,1449.9c-2.3,0-4.3-.2-6.1-.7-1.8-.5-3.3-1.3-4.5-2.6s-2.1-2.9-2.8-5c-.6-2.1-1-4.8-1-8s.3-5.9,1-8c.6-2.1,1.6-3.8,2.8-5,1.2-1.2,2.7-2.1,4.5-2.6s3.9-.7,6.1-.7,4.4.2,6.2.7c1.8.5,3.3,1.3,4.5,2.6s2.1,2.9,2.8,5c.6,2.1.9,4.8.9,8s-.3,5.9-.9,8-1.5,3.8-2.8,5c-1.2,1.2-2.7,2.1-4.5,2.6s-3.9.7-6.2.7ZM439.9,1444.1c1.5,0,2.7-.2,3.6-.6s1.7-1,2.2-1.8.9-1.9,1.1-3.2c.2-1.3.3-3,.3-4.9s-.1-3.6-.3-4.9c-.2-1.4-.6-2.5-1.1-3.3s-1.2-1.5-2.2-1.8c-.9-.4-2.1-.6-3.6-.6s-2.7.2-3.6.6-1.6,1-2.1,1.8-.9,2-1.1,3.3c-.2,1.4-.3,3-.3,4.9s.1,3.6.3,4.9c.2,1.3.6,2.4,1.1,3.2s1.2,1.4,2.1,1.8,2.1.6,3.6.6Z" style="fill: red;"/>
  </g>
  <g>
    <path d="M561.4,1441.5h-12.9l-2.8,7.9h-7.2l11.9-31.8h9.3l11.8,31.8h-7.4l-2.7-7.9h0ZM559.4,1435.8l-4.1-12h-.5l-4.2,12h8.9-.1Z" style="fill: red;"/>
    <path d="M573.9,1443.5c2.8-2.2,5.1-4.2,7-5.8,1.9-1.7,3.4-3.1,4.5-4.3s1.9-2.3,2.4-3.3.7-1.9.7-2.8c0-1.7-.5-2.9-1.5-3.6-1-.6-2.3-1-4.1-1s-2.2,0-3.3.3c-1.2.2-2.5.5-3.8.9v-5.5c1.2-.4,2.5-.7,4-.9s2.9-.3,4.4-.3c3.5,0,6.2.7,8.2,2.2s2.9,3.8,2.9,6.8-.2,2.5-.4,3.6c-.3,1.1-.8,2.3-1.7,3.5s-1.9,2.5-3.4,3.9-3.3,3-5.7,4.8l-2,1.6v.4h13.9v5.5h-22.2v-5.9h0Z" style="fill: red;"/>
  </g>
  <g>
    <path d="M712.8,1441.5h-12.9l-2.8,7.9h-7.2l11.9-31.8h9.3l11.8,31.8h-7.4l-2.7-7.9h0ZM710.8,1435.8l-4.1-12h-.5l-4.2,12h8.9-.1Z" style="fill: red;"/>
    <path d="M735.2,1423.6l-7.8,1.5v-5.6l9.5-1.9h5v31.8h-6.7v-25.8h0Z" style="fill: red;"/>
  </g>
  <g>
    <path d="M847.8,1417.7h10.7c2.3,0,4.2.2,5.8.5s2.7.9,3.6,1.6c.9.7,1.5,1.6,1.9,2.7s.5,2.3.5,3.8-.3,3-1,4.1-1.9,1.9-3.6,2.4v.2c3.7.9,5.6,3.4,5.6,7.4s-.2,2.7-.5,3.9c-.4,1.1-1,2.1-1.9,2.9s-2.1,1.4-3.6,1.8-3.5.6-5.8.6h-11.7v-31.8h0ZM857.1,1430.7c1.1,0,2.1,0,2.9-.2s1.5-.3,2-.6c.5-.3.9-.7,1.1-1.1s.4-1.1.4-1.9,0-1.5-.4-2c-.2-.5-.6-.9-1.1-1.1s-1.2-.4-2-.5c-.8,0-1.8,0-2.9,0h-2.3v7.6h2.3ZM858,1443.8c1.2,0,2.2,0,3-.2.8,0,1.5-.3,2-.6s.8-.7,1-1.2.3-1.2.3-2,0-1.4-.3-1.9-.5-.9-1-1.3c-.5-.3-1.1-.6-2-.7-.8,0-1.8-.2-3.1-.2h-3.2v8.1h3.3Z" style="fill: red;"/>
    <path d="M886.2,1423.6l-7.8,1.5v-5.6l9.5-1.9h5v31.8h-6.7v-25.8h0Z" style="fill: red;"/>
  </g>
  <g>
    <path d="M1001.1,1417.7h10.7c2.3,0,4.2.2,5.8.5s2.7.9,3.6,1.6c.9.7,1.5,1.6,1.9,2.7s.5,2.3.5,3.8-.3,3-1,4.1-1.9,1.9-3.6,2.4v.2c3.7.9,5.6,3.4,5.6,7.4s-.2,2.7-.6,3.9-1,2.1-1.9,2.9-2.1,1.4-3.6,1.8-3.5.6-5.8.6h-11.7v-31.8h0ZM1010.4,1430.7c1.1,0,2.1,0,2.9-.2s1.5-.3,2-.6c.5-.3.9-.7,1.2-1.1.2-.5.4-1.1.4-1.9s0-1.5-.4-2-.6-.9-1.1-1.1-1.2-.4-2-.5c-.8,0-1.8,0-2.9,0h-2.3v7.6h2.3-.1ZM1011.2,1443.8c1.2,0,2.2,0,3-.2s1.5-.3,2-.6.8-.7,1-1.2.3-1.2.3-2,0-1.4-.3-1.9-.5-.9-1-1.3c-.5-.3-1.1-.6-2-.7-.8,0-1.8-.2-3.1-.2h-3.2v8.1h3.3Z" style="fill: red;"/>
    <path d="M1029.6,1443.5c2.8-2.2,5.1-4.2,7-5.8,1.9-1.7,3.4-3.1,4.5-4.3s1.9-2.3,2.4-3.3.7-1.9.7-2.8c0-1.7-.5-2.9-1.5-3.6s-2.3-1-4.1-1-2.2,0-3.3.3c-1.2.2-2.4.5-3.8.9v-5.5c1.2-.4,2.6-.7,4-.9,1.4-.2,2.9-.3,4.4-.3,3.5,0,6.2.7,8.2,2.2,1.9,1.5,2.9,3.8,2.9,6.8s-.2,2.5-.4,3.6c-.3,1.1-.8,2.3-1.7,3.5s-1.9,2.5-3.4,3.9c-1.4,1.4-3.3,3-5.7,4.8l-2,1.6v.4h13.9v5.5h-22.2v-5.9h0Z" style="fill: red;"/>
  </g>
</svg>