<?xml version="1.0" encoding="UTF-8"?>
<svg id="_图层_1" xmlns="http://www.w3.org/2000/svg" version="1.1" viewBox="0 0 1600 1600">
  <!-- Generator: Adobe Illustrator 29.0.1, SVG Export Plug-In . SVG Version: 2.1.0 Build 192)  -->
  <path d="M1545.7,225.6v-61.3c0-40.6-32.9-73.5-73.5-73.5H242.6c-40.6,0-73.5,32.9-73.5,73.5v61.4h73.8v41.4h-115.8l-65.6,5.2v850.5l65.9,1.9h41.2v276.6h1265.7v-97l112.3-112.3-.8-966.4h0Z" style="fill: #333;"/>
  <path d="M1545.7,164.2c0-40.6-32.9-73.5-73.5-73.5H242.6c-40.6,0-73.5,32.9-73.5,73.5v61.3h73.8v41.4h1302.8v-102.8h0Z" style="fill: #424242;"/>
  <polygon points="1546.5 1192 1434.3 1304.2 1434.3 1401.2 168.6 1401.2 168.6 1124.6 1546.5 1124.6 1546.5 1192" style="fill: #414141;"/>
  <path d="M168.6,1401.2h1265.8v76.6c0,23.5-19.1,42.5-42.5,42.5H211.1c-23.5,0-42.5-19.1-42.5-42.5v-76.6h0Z" style="fill: #ededed; stroke: #000; stroke-miterlimit: 10; stroke-width: 2px;"/>
  <rect x="219.4" y="1124.6" width="114.5" height="259.4" style="fill: #e1be72;"/>
  <rect x="372.6" y="1124.6" width="114.5" height="271.5" style="fill: #e1be72;"/>
  <rect x="526.3" y="1124.6" width="114.5" height="271.5" style="fill: #e1be72;"/>
  <rect x="678.7" y="1124.6" width="114.5" height="271.5" style="fill: #e1be72;"/>
  <rect x="832.6" y="1124.6" width="114.5" height="271.5" style="fill: #e1be72;"/>
  <rect x="984" y="1124.8" width="114.5" height="271.5" style="fill: #e1be72;"/>
  <rect x="1136.9" y="1124.8" width="114.5" height="271.5" style="fill: #e1be72;"/>
  <rect x="1291" y="1124.8" width="114.5" height="271.5" style="fill: #e1be72;"/>
  <rect x="355.4" y="267" width="38" height="857.6" style="fill: #1b1b1b;"/>
  <rect x="1214.7" y="267" width="37.9" height="857.6" style="fill: #1b1b1b;"/>
  <rect x="1479.3" y="267" width="66.9" height="857.6" style="fill: #212121;"/>
  <ellipse cx="1372.8" cy="946.3" rx="73.6" ry="72.8" style="fill: #252525;"/>
  <g>
    <path d="M177.9,437.6h-25.9v-88h156.5v84.3h-25.7v-57.4h-37.9v53.3h-24.6v-53.3h-42.4v61.1h0Z" style="fill: #fff;"/>
    <path d="M179.2,458.7l102.2,74.3,1.4-.2v-70h25.7v102.8h-26.2l-103.1-75.1h-1.4v80.2h-25.9v-112h27.3Z" style="fill: #fff;"/>
    <path d="M149.7,626.8c0-6.2.2-11.6.7-16.2s1.2-9.4,2.3-14.4h24.6c-1.4,5.2-2.3,9.9-2.9,14-.6,4.2-.9,9.1-.9,14.7s.4,9.7,1.4,14c.9,4.3,2.4,8,4.5,11.1,2.1,3.1,4.9,5.5,8.5,7.2,3.5,1.7,8,2.6,13.4,2.6,9.9,0,16.9-2.7,21.1-8.2,4.1-5.5,6.2-14.4,6.2-26.7s-.3-9-1-14.2c-.7-5.2-1.5-10.1-2.4-14.8l83.5,9.8v71.2h-24.4v-50.7l-35.6-4.9c.4,2.5.8,4.9,1,7.3.2,2.4.3,5.2.3,8.3,0,16.1-3.9,28.4-11.6,36.7-7.8,8.3-19.9,12.5-36.4,12.5s-31.2-5.3-39.6-15.9c-8.4-10.6-12.5-25.1-12.5-43.6h0s0,0,0,0Z" style="fill: #fff;"/>
    <path d="M282.6,754.2l-7.4-35.1h23.9l9.5,42.5v18.9h-156.5v-26.3h130.6Z" style="fill: #fff;"/>
    <path d="M149.7,879.3c0-7,1-13.5,3-19.5s5.4-11.3,10.3-15.8c4.8-4.5,11.2-8.1,19.2-10.7s18-3.9,30-3.9,28.6,1.5,40.8,4.6,22.6,7.9,31.1,14.5c8.6,6.6,15.1,14.9,19.7,25,4.6,10.1,6.9,22.3,6.9,36.5l-24.4-.2c-.1-16.5-4.2-29.3-12.1-38.3-7.9-9-18.4-14.1-31.5-15.5v.6c3,3.1,5.5,7.2,7.4,12.3s2.9,10.5,2.9,16.2c0,13.8-4.2,24.5-12.5,32s-20.9,11.3-37.6,11.3-15.2-1-21.8-2.9c-6.5-1.9-12.1-4.9-16.8-8.9-4.7-4-8.3-9.2-10.9-15.4-2.6-6.2-3.9-13.6-3.9-22h0ZM172.5,878.7c0,8.3,2.6,14.7,7.7,19.2s12.7,6.7,22.8,6.7,17.1-2.1,21.9-6.4c4.8-4.2,7.2-10,7.2-17.4s-2.5-16.6-7.6-20.6-11.5-6-19.3-6-18.8,2-24.4,6.2c-5.6,4.1-8.4,10.3-8.4,18.5h0Z" style="fill: #fff;"/>
    <path d="M149.7,999.1c0-7.7,1.2-14.6,3.5-20.7,2.3-6.2,6.5-11.5,12.5-15.9,6-4.5,14.2-7.9,24.7-10.3s23.7-3.6,39.8-3.6,29.3,1.2,39.7,3.6,18.6,5.8,24.7,10.3c6.1,4.4,10.3,9.7,12.6,15.9,2.3,6.2,3.5,13.1,3.5,20.7s-1.2,14.6-3.5,20.8-6.5,11.5-12.6,15.9-14.3,7.8-24.7,10.2c-10.4,2.4-23.6,3.6-39.7,3.6s-29.4-1.2-39.8-3.6-18.7-5.8-24.7-10.2c-6-4.4-10.2-9.7-12.5-15.9s-3.5-13.2-3.5-20.8h0ZM174.1,999.1c0,4.4.8,8.1,2.5,11.2,1.6,3.1,4.6,5.6,8.7,7.6,4.1,2,9.9,3.5,17.1,4.4,7.3,1,16.6,1.4,27.9,1.4s20.5-.5,27.7-1.4c7.2-1,12.9-2.4,17.1-4.4s7.1-4.5,8.8-7.6c1.6-3.1,2.5-6.8,2.5-11.2s-.8-8.1-2.5-11.2c-1.7-3.1-4.6-5.6-8.8-7.5s-9.9-3.3-17.1-4.3-16.5-1.4-27.7-1.4-20.6.5-27.9,1.4-13,2.4-17.1,4.3c-4.1,1.9-7,4.4-8.7,7.5-1.7,3.1-2.5,6.8-2.5,11.2h0Z" style="fill: #fff;"/>
  </g>
  <circle cx="1372.3" cy="945.9" r="61.2" style="fill: #656565;"/>
</svg>