<?xml version="1.0" encoding="UTF-8"?>
<svg id="_图层_1" xmlns="http://www.w3.org/2000/svg" version="1.1" viewBox="0 0 1600 1600">
  <!-- Generator: Adobe Illustrator 29.0.1, SVG Export Plug-In . SVG Version: 2.1.0 Build 192)  -->
  <path d="M1545.7,225.6v-61.3c0-40.6-32.9-73.5-73.5-73.5H242.6c-40.6,0-73.5,32.9-73.5,73.5v61.4h73.8v41.4h-115.8l-65.6,5.2v850.5l65.9,1.9h41.2v276.6h1265.7v-97l112.3-112.3-.8-966.4h0Z" style="fill: #333;"/>
  <path d="M1545.7,164.2c0-40.6-32.9-73.5-73.5-73.5H242.6c-40.6,0-73.5,32.9-73.5,73.5v61.3h73.8v41.4h1302.8v-102.8h0Z" style="fill: #424242;"/>
  <polygon points="1546.5 1192 1434.3 1304.2 1434.3 1401.2 168.6 1401.2 168.6 1124.6 1546.5 1124.6 1546.5 1192" style="fill: #414141;"/>
  <path d="M168.6,1401.2h1265.8v76.6c0,23.5-19.1,42.5-42.5,42.5H211.1c-23.5,0-42.5-19.1-42.5-42.5v-76.6h0Z" style="fill: #ededed; stroke: #000; stroke-miterlimit: 10; stroke-width: 2px;"/>
  <rect x="219.4" y="1124.6" width="114.5" height="259.4" style="fill: #e1be72;"/>
  <rect x="372.6" y="1124.6" width="114.5" height="271.5" style="fill: #e1be72;"/>
  <rect x="526.3" y="1124.6" width="114.5" height="271.5" style="fill: #e1be72;"/>
  <rect x="678.7" y="1124.6" width="114.5" height="271.5" style="fill: #e1be72;"/>
  <rect x="832.6" y="1124.6" width="114.5" height="271.5" style="fill: #e1be72;"/>
  <rect x="984" y="1124.8" width="114.5" height="271.5" style="fill: #e1be72;"/>
  <rect x="1136.9" y="1124.8" width="114.5" height="271.5" style="fill: #e1be72;"/>
  <rect x="1291" y="1124.8" width="114.5" height="271.5" style="fill: #e1be72;"/>
  <rect x="355.4" y="267" width="38" height="857.6" style="fill: #1b1b1b;"/>
  <rect x="1214.7" y="267" width="37.9" height="857.6" style="fill: #1b1b1b;"/>
  <rect x="1479.3" y="267" width="66.9" height="857.6" style="fill: #212121;"/>
  <ellipse cx="1372.8" cy="946.3" rx="73.6" ry="72.8" style="fill: #252525;"/>
  <g>
    <path d="M253.5,1416c2.2,0,4.2.2,6.1.7s3.4,1.3,4.6,2.5,2.3,2.9,3,5.1,1.1,5,1.1,8.5-.4,5.9-1.1,8.1-1.7,3.8-3,5.1c-1.3,1.3-2.8,2.2-4.6,2.7s-3.8.8-6.1.8h-9.9v-33.5h9.9ZM253.2,1444c1.5,0,2.8-.2,3.9-.5s2.1-1,2.9-1.8,1.4-2,1.8-3.4.6-3.3.6-5.5-.2-4.2-.6-5.7-1-2.6-1.8-3.5c-.8-.8-1.8-1.4-2.9-1.7-1.1-.3-2.4-.5-3.8-.5h-3.9v22.7h3.9-.1Z" style="fill: red;"/>
    <path d="M274.7,1416h5.7v33.5h-5.7v-33.5Z" style="fill: red;"/>
    <path d="M304.9,1449.4l-7.6-12.6h-4v12.6h-5.7v-33.5h9.5c2,0,3.8.2,5.3.6s2.7,1,3.6,1.8,1.6,1.9,2.1,3.2c.5,1.3.7,2.9.7,4.8,0,2.8-.5,5-1.4,6.5-1,1.5-2.4,2.6-4.5,3.2l8.7,13.4h-6.8,0ZM296.3,1432c1.2,0,2.3,0,3.1-.2.9,0,1.5-.4,2.1-.8.5-.4.9-1,1.2-1.7.2-.7.4-1.7.4-2.9s-.1-2-.4-2.7-.6-1.2-1.2-1.6c-.5-.4-1.2-.7-2.1-.8-.9,0-1.9-.2-3.1-.2h-2.9v10.9h2.9Z" style="fill: red;"/>
  </g>
  <g>
    <path d="M390.7,1449.9h-2.7c-.9,0-1.7-.2-2.5-.3s-1.5-.3-2.1-.4-1.2-.3-1.6-.4v-5.6c.5.2,1,.4,1.7.5.7.2,1.4.3,2.2.4.8,0,1.6.2,2.4.3.8,0,1.7,0,2.5,0,2.1,0,3.6-.3,4.5-1s1.4-1.8,1.4-3.5,0-1.4-.2-1.9-.5-1-.9-1.4-1-.8-1.8-1.1c-.8-.3-1.8-.6-3-1-1.6-.4-3-.9-4-1.3-1.1-.5-1.9-1.1-2.6-1.8-.7-.7-1.1-1.6-1.4-2.6s-.4-2.3-.4-3.7c0-3.4.9-5.9,2.7-7.3,1.8-1.5,4.5-2.2,8-2.2s3.1,0,4.5.4c1.4.2,2.5.5,3.2.8v5.3c-.4-.2-.9-.3-1.5-.5-.6,0-1.2-.3-1.9-.4s-1.4-.2-2.1-.3h-2.1c-1.8,0-3.2.3-4.1.8-.9.6-1.3,1.7-1.3,3.3s0,1.2.2,1.6c.1.4.4.8.8,1.2.4.3,1,.7,1.7.9.7.3,1.7.6,2.9.9,1.8.5,3.2,1,4.4,1.5,1.1.6,2.1,1.2,2.7,2,.7.8,1.1,1.8,1.4,2.9s.4,2.5.4,4.1c0,3.3-.9,5.8-2.7,7.4-1.8,1.7-4.7,2.5-8.7,2.5h0v-.2Z" style="fill: red;"/>
    <path d="M426.8,1421.5h-8.3v27.9h-5.7v-27.9h-8.2v-5.5h22.3v5.5h0Z" style="fill: red;"/>
    <path d="M450,1443.9v5.5h-18.8v-33.5h18v5.5h-12.3v8.1h11.4v5.3h-11.4v9.1h13.1,0Z" style="fill: red;"/>
    <path d="M455.7,1416h9.7c2.2,0,4.1.2,5.6.6s2.7,1.1,3.6,2,1.5,2.1,1.9,3.5.6,3.1.6,5.1-.2,3.9-.7,5.3c-.4,1.4-1.1,2.6-2.1,3.5s-2.2,1.6-3.6,2-3.2.6-5.3.6h-4v10.8h-5.7v-33.5h0ZM464.8,1433.5c1.2,0,2.3,0,3.1-.3.8-.2,1.5-.5,2-1s.9-1.1,1.1-1.9.3-1.8.3-3c0-2.3-.5-3.9-1.5-4.8s-2.7-1.3-5.1-1.3h-3.3v12.4h3.4Z" style="fill: red;"/>
  </g>
  <g>
    <path d="M529.5,1416c2.2,0,4.2.2,6,.7s3.4,1.3,4.7,2.5,2.3,2.9,3,5.1,1.1,5,1.1,8.5-.4,5.9-1.1,8.1-1.7,3.8-3,5.1c-1.3,1.3-2.8,2.2-4.7,2.7s-3.8.8-6,.8h-9.9v-33.5h9.9ZM529.3,1444c1.5,0,2.8-.2,3.9-.5s2.1-1,2.9-1.8c.8-.8,1.4-2,1.8-3.4s.6-3.3.6-5.5-.2-4.2-.6-5.7c-.4-1.5-1-2.6-1.8-3.5-.8-.8-1.8-1.4-2.9-1.7-1.1-.3-2.4-.5-3.8-.5h-3.9v22.7h3.9-.1Z" style="fill: red;"/>
    <path d="M550.7,1416h5.7v33.5h-5.7v-33.5Z" style="fill: red;"/>
    <path d="M581.8,1440.5h-12.7l-2.9,8.9h-5.9l11.4-33.5h7.7l11.3,33.5h-6.1l-2.8-8.9h0ZM580.1,1435.2l-4.3-13.6h-.5l-4.4,13.6h9.3,0Z" style="fill: red;"/>
    <path d="M607.8,1449.9c-2.3,0-4.4-.2-6.2-.7s-3.3-1.4-4.6-2.6c-1.3-1.3-2.2-3-2.9-5.2s-1-5.1-1-8.6.3-5.9,1-8.1,1.7-4,3-5.3,2.9-2.3,4.7-2.9,4-.9,6.3-.9,1.4,0,2.2,0,1.5,0,2.2.2,1.4.2,2,.4,1.2.3,1.6.5v5.6c-1.1-.4-2.3-.8-3.6-1s-2.7-.3-4.1-.3-2.9.2-4.1.5-2.1,1-2.9,1.9-1.3,2.1-1.7,3.6-.6,3.4-.6,5.7.2,4.4.5,6c.3,1.5.9,2.8,1.6,3.6s1.7,1.5,2.8,1.8,2.5.5,4.1.5h2c.7,0,1.3-.2,1.8-.3v-8.3h-5.5v-5.3h10.9v17.9c-1.1.4-2.6.7-4.2,1-1.7.3-3.5.4-5.4.4h.1Z" style="fill: red;"/>
    <path d="M632.3,1421.5l-7.5,1.6v-5.1l9.1-2h4v33.5h-5.6v-27.9h0Z" style="fill: red;"/>
  </g>
  <g>
    <path d="M698.9,1449.9c-2.2,0-4.2-.2-5.9-.7s-3.3-1.4-4.5-2.6c-1.3-1.3-2.2-3-2.9-5.2s-1-5.1-1-8.6.3-5.9,1-8.1,1.7-4,2.9-5.3,2.8-2.3,4.6-2.9,3.8-.9,6-.9,2.8,0,3.9.3c1.1.2,2.2.4,3.1.8v5.5c-.9-.3-1.9-.6-3-.8s-2.3-.3-3.6-.3-2.8.2-3.9.6-2,1-2.7,1.9-1.2,2.1-1.6,3.6c-.3,1.5-.5,3.3-.5,5.6s.2,4.3.5,5.8.8,2.7,1.6,3.6,1.6,1.5,2.7,1.8c1.1.3,2.3.5,3.8.5s2.6,0,3.7-.3c1.1-.2,2.3-.5,3.5-1v5.4c-.9.4-2,.7-3.3,1s-2.7.4-4.1.4h-.3Z" style="fill: red;"/>
    <path d="M717.4,1421.4v8.8h11.4v5.5h-11.4v13.6h-5.7v-33.5h18v5.5h-12.3Z" style="fill: red;"/>
    <path d="M749,1449.9c-2.3,0-4.4-.2-6.2-.7s-3.3-1.4-4.6-2.6c-1.3-1.3-2.2-3-2.9-5.2s-1-5.1-1-8.6.3-5.9,1-8.1,1.7-4,3-5.3,2.9-2.3,4.7-2.9,4-.9,6.3-.9,1.4,0,2.2,0,1.5,0,2.2.2,1.4.2,2,.4,1.2.3,1.6.5v5.6c-1.1-.4-2.3-.8-3.6-1s-2.7-.3-4.1-.3-2.9.2-4.1.5-2.1,1-2.9,1.9-1.3,2.1-1.7,3.6-.6,3.4-.6,5.7.2,4.4.5,6c.3,1.5.9,2.8,1.6,3.6s1.7,1.5,2.8,1.8,2.5.5,4.1.5h2c.7,0,1.3-.2,1.8-.3v-8.3h-5.5v-5.3h10.9v17.9c-1.1.4-2.6.7-4.2,1-1.7.3-3.5.4-5.4.4h.1Z" style="fill: red;"/>
    <path d="M774.6,1449.9c-1.6,0-3.1-.2-4.4-.8s-2.5-1.4-3.4-2.7-1.7-3-2.2-5.3c-.5-2.2-.8-5.1-.8-8.5s.3-6.3.8-8.5,1.2-4,2.2-5.3,2.1-2.2,3.4-2.7,2.8-.8,4.4-.8,3.1.2,4.5.8,2.5,1.4,3.4,2.7c.9,1.3,1.7,3.1,2.2,5.3s.8,5.1.8,8.5-.3,6.3-.8,8.5-1.2,4-2.2,5.3c-.9,1.3-2.1,2.2-3.4,2.7s-2.8.8-4.5.8ZM774.6,1444.7c.9,0,1.7-.2,2.4-.5s1.2-1,1.6-1.9c.4-.9.7-2.1.9-3.7s.3-3.5.3-6,0-4.4-.3-5.9-.5-2.8-.9-3.7-1-1.5-1.6-1.9-1.5-.5-2.4-.5-1.7.2-2.4.5-1.2,1-1.6,1.9-.7,2.1-.9,3.7c-.2,1.5-.3,3.5-.3,5.9s0,4.4.3,6c.2,1.6.5,2.8.9,3.7s.9,1.5,1.6,1.9c.7.3,1.5.5,2.4.5Z" style="fill: red;"/>
  </g>
  <g>
    <path d="M682.3,1465.6h9.3l6,19.8h.3l6.1-19.8h9v33.5h-5.7v-27.3h-.3l-6.5,20.5h-5.9l-6.5-20.5h-.3v27.3h-5.6v-33.5h.1Z"/>
    <path d="M720.2,1465.6h5.7v33.5h-5.7v-33.5Z"/>
    <path d="M740.8,1499.5h-2.7c-.9,0-1.7-.2-2.5-.3s-1.5-.3-2.2-.4-1.2-.3-1.6-.4v-5.6c.5.2,1,.4,1.7.5.7.2,1.4.3,2.2.4s1.6.2,2.4.3c.8,0,1.7,0,2.5,0,2.1,0,3.6-.3,4.5-1s1.4-1.8,1.4-3.5,0-1.4-.2-1.9-.5-1-.9-1.4-1-.8-1.8-1.1-1.8-.6-3-1c-1.6-.4-3-.9-4-1.3-1.1-.5-1.9-1.1-2.6-1.8-.7-.7-1.1-1.6-1.4-2.6-.3-1-.4-2.3-.4-3.7,0-3.4.9-5.9,2.7-7.3,1.8-1.5,4.5-2.2,8-2.2s3.1,0,4.5.4c1.4.2,2.5.5,3.2.8v5.3c-.4-.2-.9-.3-1.5-.5-.6,0-1.2-.3-1.9-.4s-1.4-.2-2.1-.3h-2.1c-1.8,0-3.2.3-4.1.8-.9.6-1.3,1.7-1.3,3.3s0,1.2.2,1.6c0,.4.4.8.8,1.2.4.3,1,.7,1.7.9.7.3,1.7.6,2.9.9,1.8.5,3.2,1,4.4,1.5,1.2.6,2.1,1.2,2.7,2s1.2,1.8,1.4,2.9.4,2.5.4,4.1c0,3.3-.9,5.8-2.7,7.4-1.8,1.7-4.7,2.5-8.7,2.5h0v-.2Z"/>
    <path d="M771,1499.5c-2.2,0-4.1-.3-5.8-.8s-3.1-1.4-4.2-2.7-2-3.1-2.6-5.3-.9-5-.9-8.4.3-6.2.9-8.4c.6-2.2,1.5-4,2.6-5.3s2.6-2.2,4.2-2.8c1.7-.5,3.6-.8,5.8-.8s4.1.3,5.8.8,3.1,1.4,4.2,2.8,2,3.1,2.6,5.3c.6,2.2.9,5,.9,8.4s-.3,6.2-.9,8.4c-.6,2.2-1.5,4-2.6,5.3s-2.6,2.2-4.2,2.7-3.6.8-5.8.8ZM771,1494.2c1.5,0,2.8-.2,3.8-.7s1.8-1.1,2.3-2.1c.6-.9.9-2.2,1.1-3.7s.3-3.4.3-5.5,0-3.9-.3-5.5-.6-2.8-1.1-3.7c-.6-1-1.3-1.7-2.3-2.1s-2.2-.7-3.8-.7-2.8.2-3.8.7c-1,.4-1.8,1.2-2.3,2.1-.6,1-.9,2.2-1.1,3.7s-.3,3.3-.3,5.5,0,4,.3,5.5c.2,1.5.6,2.7,1.1,3.7s1.3,1.6,2.3,2.1,2.3.7,3.8.7Z"/>
  </g>
  <g>
    <path d="M874.7,1499.5c-2.2,0-4.2-.2-5.9-.7s-3.3-1.4-4.5-2.6c-1.3-1.3-2.2-3-2.9-5.2s-1-5.1-1-8.6.3-5.9,1-8.1,1.7-4,2.9-5.3,2.8-2.3,4.6-2.9,3.8-.9,6-.9,2.8,0,3.9.3c1.1.2,2.2.4,3.1.8v5.5c-.9-.3-1.9-.6-3-.8-1.1-.2-2.3-.3-3.6-.3s-2.8.2-3.9.6-2,1-2.7,1.9-1.2,2.1-1.6,3.6c-.3,1.5-.5,3.3-.5,5.6s.2,4.3.5,5.8.8,2.7,1.6,3.6c.7.9,1.6,1.5,2.7,1.8s2.3.5,3.8.5,2.6,0,3.7-.3c1.1-.2,2.3-.5,3.5-1v5.4c-.9.4-2,.7-3.3,1s-2.7.4-4.1.4h-.3Z"/>
    <path d="M895.3,1499.5h-2.7c-.9,0-1.7-.2-2.5-.3s-1.5-.3-2.2-.4-1.2-.3-1.6-.4v-5.6c.5.2,1,.4,1.7.5.7.2,1.4.3,2.2.4s1.6.2,2.4.3c.8,0,1.7,0,2.5,0,2.1,0,3.6-.3,4.5-1s1.4-1.8,1.4-3.5,0-1.4-.2-1.9-.5-1-.9-1.4-1-.8-1.8-1.1-1.8-.6-3-1c-1.6-.4-3-.9-4-1.3-1.1-.5-1.9-1.1-2.6-1.8-.7-.7-1.1-1.6-1.4-2.6-.3-1-.4-2.3-.4-3.7,0-3.4.9-5.9,2.7-7.3,1.8-1.5,4.5-2.2,8-2.2s3.1,0,4.5.4c1.4.2,2.5.5,3.2.8v5.3c-.4-.2-.9-.3-1.5-.5-.6,0-1.2-.3-1.9-.4s-1.4-.2-2.1-.3h-2.1c-1.8,0-3.2.3-4.1.8-.9.6-1.3,1.7-1.3,3.3s0,1.2.2,1.6c0,.4.4.8.8,1.2.4.3,1,.7,1.7.9.7.3,1.7.6,2.9.9,1.8.5,3.2,1,4.4,1.5,1.2.6,2.1,1.2,2.7,2s1.2,1.8,1.4,2.9c.3,1.1.4,2.5.4,4.1,0,3.3-.9,5.8-2.7,7.4-1.8,1.7-4.7,2.5-8.7,2.5h0v-.2Z"/>
  </g>
  <g>
    <path d="M1014,1499.5h-2.7c-.9,0-1.7-.2-2.5-.3s-1.5-.3-2.2-.4-1.2-.3-1.6-.4v-5.6c.5.2,1,.4,1.7.5.7.2,1.4.3,2.2.4s1.6.2,2.4.3c.8,0,1.7,0,2.5,0,2.1,0,3.6-.3,4.5-1s1.4-1.8,1.4-3.5,0-1.4-.2-1.9-.5-1-.9-1.4-1-.8-1.8-1.1-1.8-.6-3-1c-1.6-.4-3-.9-4-1.3s-1.9-1.1-2.6-1.8c-.7-.7-1.1-1.6-1.4-2.6-.3-1-.4-2.3-.4-3.7,0-3.4.9-5.9,2.7-7.3,1.8-1.5,4.5-2.2,8-2.2s3.1,0,4.5.4,2.5.5,3.2.8v5.3c-.4-.2-.9-.3-1.5-.5s-1.2-.3-1.9-.4-1.4-.2-2.1-.3h-2.1c-1.8,0-3.2.3-4.1.8-.9.6-1.3,1.7-1.3,3.3s0,1.2.2,1.6c0,.4.4.8.8,1.2.4.3,1,.7,1.7.9s1.7.6,2.9.9c1.8.5,3.2,1,4.4,1.5,1.2.6,2.1,1.2,2.7,2,.7.8,1.2,1.8,1.4,2.9.3,1.1.4,2.5.4,4.1,0,3.3-.9,5.8-2.7,7.4-1.8,1.7-4.7,2.5-8.7,2.5h0v-.2Z"/>
    <path d="M1045,1499.5c-2.2,0-4.2-.2-5.9-.7-1.8-.5-3.3-1.4-4.5-2.6s-2.2-3-2.9-5.2c-.7-2.2-1-5.1-1-8.6s.3-5.9,1-8.1,1.7-4,2.9-5.3,2.8-2.3,4.6-2.9,3.8-.9,6-.9,2.8,0,3.9.3c1.1.2,2.2.4,3.1.8v5.5c-.9-.3-1.9-.6-3-.8-1.1-.2-2.3-.3-3.6-.3s-2.8.2-3.9.6-2,1-2.7,1.9-1.2,2.1-1.6,3.6c-.3,1.5-.5,3.3-.5,5.6s.2,4.3.5,5.8.8,2.7,1.6,3.6c.7.9,1.6,1.5,2.7,1.8s2.3.5,3.8.5,2.6,0,3.7-.3c1.1-.2,2.3-.5,3.5-1v5.4c-.9.4-2,.7-3.3,1s-2.7.4-4.1.4h-.3Z"/>
    <path d="M1082,1499h-7.1l-9.6-15h-1.8v15h-5.7v-33.5h5.7v13.2h1.8l9.4-13.2h6.8l-11.6,15.5,12,17.9h0Z"/>
  </g>
  <g>
    <path d="M1143.3,1465.6h9.3l6,19.8h.3l6.1-19.8h9v33.5h-5.7v-27.3h-.3l-6.5,20.5h-5.9l-6.5-20.5h-.3v27.3h-5.6v-33.5h0Z"/>
    <path d="M1193.9,1499.5c-2.2,0-4.1-.3-5.8-.8s-3.1-1.4-4.2-2.7c-1.1-1.3-2-3.1-2.6-5.3s-.9-5-.9-8.4.3-6.2.9-8.4,1.5-4,2.6-5.3,2.6-2.2,4.2-2.8,3.6-.8,5.8-.8,4.1.3,5.8.8,3.1,1.4,4.2,2.8,2,3.1,2.6,5.3c.6,2.2.9,5,.9,8.4s-.3,6.2-.9,8.4-1.5,4-2.6,5.3c-1.2,1.3-2.6,2.2-4.2,2.7s-3.6.8-5.8.8ZM1193.9,1494.2c1.6,0,2.8-.2,3.8-.7s1.8-1.1,2.3-2.1.9-2.2,1.1-3.7.3-3.4.3-5.5,0-3.9-.3-5.5c-.2-1.5-.6-2.8-1.1-3.7-.6-1-1.3-1.7-2.3-2.1s-2.2-.7-3.8-.7-2.8.2-3.8.7c-1,.4-1.8,1.2-2.3,2.1-.6,1-.9,2.2-1.1,3.7s-.3,3.3-.3,5.5,0,4,.3,5.5c.2,1.5.6,2.7,1.1,3.7.6.9,1.3,1.6,2.3,2.1s2.3.7,3.8.7Z"/>
    <path d="M1221.7,1499.5h-2.7c-.9,0-1.7-.2-2.5-.3s-1.5-.3-2.2-.4-1.2-.3-1.6-.4v-5.6c.5.2,1,.4,1.7.5.7.2,1.4.3,2.2.4.8,0,1.6.2,2.4.3.8,0,1.7,0,2.5,0,2.1,0,3.6-.3,4.5-1s1.4-1.8,1.4-3.5,0-1.4-.2-1.9-.5-1-.9-1.4-1.1-.8-1.8-1.1c-.8-.3-1.8-.6-3.1-1-1.6-.4-2.9-.9-4-1.3-1.1-.5-1.9-1.1-2.6-1.8-.7-.7-1.1-1.6-1.4-2.6s-.4-2.3-.4-3.7c0-3.4.9-5.9,2.7-7.3,1.8-1.5,4.5-2.2,8.1-2.2s3.1,0,4.5.4,2.5.5,3.2.8v5.3c-.4-.2-.9-.3-1.5-.5s-1.2-.3-1.9-.4c-.7,0-1.4-.2-2.1-.3h-2.1c-1.8,0-3.2.3-4.1.8-.9.6-1.3,1.7-1.3,3.3s0,1.2.2,1.6c0,.4.4.8.8,1.2.4.3,1,.7,1.7.9.7.3,1.7.6,2.9.9,1.8.5,3.2,1,4.4,1.5,1.2.6,2.1,1.2,2.7,2s1.2,1.8,1.4,2.9.4,2.5.4,4.1c0,3.3-.9,5.8-2.7,7.4-1.8,1.7-4.7,2.5-8.7,2.5h0v-.2Z"/>
    <path d="M1239.1,1465.6h5.7v33.5h-5.7v-33.5Z"/>
  </g>
  <g>
    <path d="M849.8,1449.9c-2.2,0-4.2-.2-5.9-.7s-3.3-1.4-4.5-2.6c-1.3-1.3-2.2-3-2.9-5.2s-1-5.1-1-8.6.3-5.9,1-8.1,1.7-4,2.9-5.3,2.8-2.3,4.6-2.9,3.8-.9,6-.9,2.8,0,3.9.3c1.1.2,2.2.4,3.1.8v5.5c-.9-.3-1.9-.6-3-.8-1.1-.2-2.3-.3-3.6-.3s-2.8.2-3.9.6c-1.1.4-2,1-2.7,1.9s-1.2,2.1-1.6,3.6c-.3,1.5-.5,3.3-.5,5.6s.2,4.3.5,5.8.9,2.7,1.6,3.6,1.6,1.5,2.7,1.8c1.1.3,2.3.5,3.8.5s2.6,0,3.7-.3c1.1-.2,2.3-.5,3.5-1v5.4c-.9.4-2,.7-3.3,1s-2.7.4-4.1.4h-.3Z" style="fill: red;"/>
    <path d="M868.3,1421.4v8.8h11.4v5.5h-11.4v13.6h-5.8v-33.5h18v5.5h-12.3,0Z" style="fill: red;"/>
    <path d="M900,1449.9c-2.3,0-4.4-.2-6.2-.7s-3.4-1.4-4.6-2.6-2.2-3-2.9-5.2-1-5.1-1-8.6.3-5.9,1-8.1,1.7-4,3-5.3,2.9-2.3,4.7-2.9,4-.9,6.3-.9,1.4,0,2.2,0,1.5,0,2.2.2c.7,0,1.4.2,2,.4s1.2.3,1.6.5v5.6c-1.1-.4-2.3-.8-3.6-1s-2.7-.3-4.1-.3-2.9.2-4.1.5-2.1,1-2.9,1.9-1.3,2.1-1.7,3.6-.6,3.4-.6,5.7.2,4.4.5,6c.3,1.5.9,2.8,1.6,3.6s1.7,1.5,2.8,1.8,2.5.5,4.1.5h2c.7,0,1.3-.2,1.8-.3v-8.3h-5.5v-5.3h10.9v17.9c-1.1.4-2.6.7-4.2,1-1.7.3-3.5.4-5.4.4h.1Z" style="fill: red;"/>
    <path d="M922.6,1449.9c-1.3,0-2.6,0-3.7,0-1.1,0-2.2-.3-3.2-.5v-5.2c1.2.3,2.3.5,3.3.6s2.2.2,3.3.2,1.9,0,2.8-.2c.8-.2,1.6-.4,2.2-.8.6-.4,1.2-.9,1.5-1.6.4-.7.5-1.5.5-2.5,0-2-.7-3.3-2.1-4.1-1.4-.7-3.3-1.1-5.8-1.1h-2.4v-4.7h2.3c2.3,0,4.1-.4,5.4-1.2s2-2,2-3.8-.5-2.8-1.5-3.5c-1-.6-2.5-1-4.3-1s-1.9,0-3,.3c-1.1.2-2.1.4-3,.7v-5c.7-.3,1.7-.5,2.9-.7s2.5-.3,3.7-.3,3.2.2,4.5.5,2.4.8,3.3,1.5,1.6,1.6,2.1,2.8.8,2.6.8,4.2-.4,3.5-1.3,4.7c-.8,1.2-2.1,2.1-3.8,2.7v.3c2,.4,3.5,1.3,4.4,2.7,1,1.4,1.5,3.1,1.5,5.2,0,6.6-4.2,9.8-12.5,9.8h0Z" style="fill: red;"/>
  </g>
  <g>
    <path d="M1004.8,1449.9c-2.2,0-4.2-.2-5.9-.7s-3.3-1.4-4.5-2.6c-1.3-1.3-2.2-3-2.9-5.2s-1-5.1-1-8.6.3-5.9,1-8.1,1.7-4,2.9-5.3,2.8-2.3,4.6-2.9,3.8-.9,6-.9,2.8,0,3.9.3c1.1.2,2.2.4,3.1.8v5.5c-.9-.3-1.9-.6-3-.8-1.1-.2-2.3-.3-3.6-.3s-2.8.2-3.9.6-2,1-2.7,1.9-1.2,2.1-1.6,3.6c-.3,1.5-.5,3.3-.5,5.6s.2,4.3.5,5.8.8,2.7,1.6,3.6c.7.9,1.6,1.5,2.7,1.8s2.3.5,3.8.5,2.6,0,3.7-.3c1.1-.2,2.3-.5,3.5-1v5.4c-.9.4-2,.7-3.3,1s-2.7.4-4.1.4h-.3Z" style="fill: red;"/>
    <path d="M1023.4,1421.4v8.8h11.4v5.5h-11.4v13.6h-5.7v-33.5h18v5.5h-12.3,0Z" style="fill: red;"/>
    <path d="M1055,1449.9c-2.3,0-4.4-.2-6.2-.7s-3.3-1.4-4.6-2.6c-1.3-1.3-2.2-3-2.9-5.2-.7-2.2-1-5.1-1-8.6s.3-5.9,1-8.1,1.7-4,3-5.3,2.9-2.3,4.7-2.9,3.9-.9,6.3-.9,1.4,0,2.2,0,1.5,0,2.2.2,1.4.2,2,.4,1.2.3,1.6.5v5.6c-1.1-.4-2.3-.8-3.6-1s-2.7-.3-4.1-.3-2.9.2-4.1.5-2.1,1-2.9,1.9-1.3,2.1-1.7,3.6-.6,3.4-.6,5.7.2,4.4.5,6,.9,2.8,1.6,3.6,1.7,1.5,2.8,1.8c1.1.3,2.5.5,4.1.5h2c.7,0,1.3-.2,1.8-.3v-8.3h-5.5v-5.3h10.9v17.9c-1.1.4-2.6.7-4.2,1-1.7.3-3.5.4-5.4.4h0Z" style="fill: red;"/>
    <path d="M1070.1,1443.7c2.9-2.5,5.2-4.7,7.1-6.5s3.3-3.4,4.4-4.8,1.8-2.6,2.2-3.7c.4-1.1.6-2.1.6-3.2s-.2-1.8-.4-2.5c-.3-.7-.7-1.2-1.2-1.6s-1.1-.7-1.8-.8c-.7-.2-1.4-.2-2.2-.2s-2.1,0-3.2.2-2.3.4-3.6.9v-5.1c1.1-.3,2.3-.6,3.6-.8,1.3-.2,2.7-.3,4.1-.3,3.2,0,5.8.8,7.6,2.3s2.8,3.9,2.8,7.2-.2,2.7-.5,4-.9,2.5-1.7,3.8-2,2.7-3.4,4.2c-1.5,1.5-3.3,3.3-5.7,5.3l-1.9,1.6v.4h14.1v5.1h-20.9v-5.7h0v.2Z" style="fill: red;"/>
  </g>
  <g>
    <path d="M1158.1,1449.9c-2.2,0-4.2-.2-5.9-.7s-3.3-1.4-4.5-2.6-2.2-3-2.9-5.2c-.7-2.2-1-5.1-1-8.6s.3-5.9,1-8.1,1.7-4,2.9-5.3,2.8-2.3,4.6-2.9,3.8-.9,6-.9,2.8,0,3.9.3c1.1.2,2.2.4,3.1.8v5.5c-.9-.3-1.9-.6-3-.8-1.1-.2-2.3-.3-3.6-.3s-2.8.2-3.9.6-2,1-2.7,1.9-1.2,2.1-1.6,3.6c-.3,1.5-.5,3.3-.5,5.6s.2,4.3.5,5.8.9,2.7,1.6,3.6,1.6,1.5,2.7,1.8,2.3.5,3.8.5,2.6,0,3.7-.3c1.1-.2,2.3-.5,3.5-1v5.4c-.9.4-2,.7-3.3,1s-2.7.4-4.1.4h-.3Z" style="fill: red;"/>
    <path d="M1176.7,1421.4v8.8h11.4v5.5h-11.4v13.6h-5.8v-33.5h18v5.5h-12.3.1Z" style="fill: red;"/>
    <path d="M1208.3,1449.9c-2.3,0-4.4-.2-6.2-.7s-3.4-1.4-4.6-2.6-2.2-3-2.9-5.2c-.7-2.2-1-5.1-1-8.6s.3-5.9,1-8.1,1.7-4,3-5.3,2.9-2.3,4.7-2.9,3.9-.9,6.3-.9,1.4,0,2.2,0,1.5,0,2.2.2c.7,0,1.4.2,2,.4s1.2.3,1.6.5v5.6c-1.1-.4-2.3-.8-3.6-1s-2.7-.3-4.1-.3-2.9.2-4.1.5-2.1,1-2.9,1.9-1.3,2.1-1.7,3.6-.6,3.4-.6,5.7.2,4.4.5,6c.3,1.5.9,2.8,1.6,3.6s1.7,1.5,2.8,1.8c1.1.3,2.5.5,4.1.5h2c.7,0,1.3-.2,1.8-.3v-8.3h-5.5v-5.3h10.9v17.9c-1.1.4-2.6.7-4.2,1-1.7.3-3.5.4-5.4.4h0Z" style="fill: red;"/>
    <path d="M1232.8,1421.5l-7.5,1.6v-5.1l9.1-2h4v33.5h-5.6v-27.9h0Z" style="fill: red;"/>
  </g>
  <g>
    <path d="M1341.6,1443.9v5.5h-18.8v-33.5h18v5.5h-12.3v8.1h11.4v5.3h-11.4v9.1h13.1Z" style="fill: red;"/>
    <path d="M1347.4,1416h8.8l11.1,25.2h.3v-25.2h5.6v33.5h-7.8l-12-26.8h-.3v26.8h-5.7v-33.5h0Z" style="fill: red;"/>
  </g>
  <circle cx="1372.3" cy="945.9" r="61.2" style="fill: #656565;"/>
  <g>
    <path d="M182.6,435.9h-29.3v-88.9h153.9v86h-29.3v-55.2h-31.7v51.1h-28.1v-51.1h-35.5v58h0Z" style="fill: #fff;"/>
    <path d="M183.5,456.2l93.3,69.4,1.3-.2v-65.4h29v103.5h-29l-94.2-70.2h-1.3v75.5h-29.3v-112.6h30.2Z" style="fill: #fff;"/>
    <path d="M151.1,624.4c0-6.1.2-11.5.7-16.2.4-4.7,1.2-9.5,2.2-14.4h27.5c-.6,2.6-1.1,4.9-1.6,7.1s-.9,4.3-1.2,6.5-.6,4.4-.8,6.8-.2,5-.2,7.8c0,4.6.4,8.9,1.1,12.8.7,3.9,2,7.3,3.9,10.2s4.3,5.1,7.4,6.7c3.1,1.6,7,2.4,11.8,2.4,8.9,0,15-2.5,18.5-7.5s5.2-13,5.2-24-.3-9.2-1-14.5-1.4-10.3-2.3-14.9l84.9,9.9v72.7h-27.3v-49.1l-31.7-4.5c.6,2.4,1,4.8,1.2,7.1s.3,4.9.3,7.9c0,15.8-3.9,27.7-11.6,35.6s-19.7,11.9-35.8,11.9-16.5-1.4-22.9-4.2-11.8-6.7-16-11.9-7.3-11.4-9.3-18.9c-2-7.4-3-15.9-3-25.4h0Z" style="fill: #fff;"/>
    <path d="M278.2,750.9l-7.3-34.5h27l9.3,42.2v22.1h-153.9v-29.8h124.9Z" style="fill: #fff;"/>
    <path d="M151.1,876.9c0-7.2,1-13.8,2.9-20s5.2-11.5,10-16.1c4.7-4.6,11-8.2,18.8-10.9s17.7-4,29.5-4,28.6,1.6,40.6,4.8c12,3.2,22.1,8.1,30.5,14.8s14.8,15.2,19.3,25.5,6.8,22.6,6.8,36.9l-27.5-.2c-.3-16-3.8-28.2-10.4-36.6-6.6-8.5-16-13.4-27.9-14.9v.6c2.9,3.4,5.2,7.5,6.8,12.3s2.3,9.8,2.3,14.9c0,13.9-4.1,24.6-12.4,32s-20.5,11.1-36.6,11.1-15.2-1-21.6-2.9-11.9-5-16.5-9.1-8.1-9.3-10.6-15.6-3.8-13.8-3.8-22.4h0l-.2-.2ZM176.4,875.9c0,7.6,2.2,13.4,6.8,17.5s11.2,6.2,20.1,6.2,15-1.9,19.3-5.8c4.3-3.9,6.4-9.2,6.4-16.1s-.6-8.2-1.8-11.2-2.9-5.4-5-7.3-4.7-3.2-7.6-4.1c-3-.8-6.2-1.2-9.8-1.2-9,0-16,1.8-20.9,5.4-4.9,3.6-7.4,9.1-7.4,16.5h-.1Z" style="fill: #fff;"/>
    <path d="M151.1,996.2c0-7.7,1.1-14.8,3.4-21.1,2.3-6.4,6.4-11.8,12.4-16.2,6-4.5,14.1-7.9,24.4-10.3,10.3-2.4,23.3-3.7,39.1-3.7s28.8,1.2,39,3.7c10.2,2.4,18.2,5.9,24.2,10.3,5.9,4.5,10,9.9,12.3,16.2,2.3,6.4,3.4,13.4,3.4,21.1s-1.1,14.7-3.4,21-6.4,11.7-12.3,16.1c-5.9,4.5-14,7.9-24.2,10.2-10.2,2.4-23.2,3.6-39,3.6s-28.9-1.2-39.1-3.6c-10.3-2.4-18.4-5.8-24.4-10.2-6-4.5-10.1-9.8-12.4-16.1s-3.4-13.3-3.4-21h0ZM178.8,996.2c0,3.9.7,7.3,2.2,10,1.5,2.8,4.1,5,7.9,6.8,3.8,1.8,9,3,15.6,3.9s15.2,1.2,25.7,1.2,18.8-.4,25.5-1.2,11.9-2.1,15.8-3.9c3.9-1.8,6.6-4,8.1-6.8s2.2-6.1,2.2-10-.7-7.3-2.2-10c-1.5-2.8-4.2-5-8.1-6.8s-9.2-3-15.9-3.9c-6.6-.8-15.1-1.2-25.5-1.2s-19.1.4-25.7,1.2c-6.6.8-11.9,2.1-15.6,3.9s-6.4,4-7.9,6.8-2.2,6.1-2.2,10h0Z" style="fill: #fff;"/>
  </g>
</svg>